<svg version="1.1" baseProfile="full" shape-rendering="crispEdges" width="588" height="588" xmlns="http://www.w3.org/2000/svg" xmlns:xlink="http://www.w3.org/1999/xlink"><rect x="0" y="0" width="588" height="588" fill="#FFFFFF" />
<rect x="48" y="48" width="84" height="12" fill="#000000" />
<rect x="144" y="48" width="12" height="12" fill="#000000" />
<rect x="168" y="48" width="60" height="12" fill="#000000" />
<rect x="276" y="48" width="24" height="12" fill="#000000" />
<rect x="312" y="48" width="24" height="12" fill="#000000" />
<rect x="348" y="48" width="12" height="12" fill="#000000" />
<rect x="384" y="48" width="12" height="12" fill="#000000" />
<rect x="408" y="48" width="36" height="12" fill="#000000" />
<rect x="456" y="48" width="84" height="12" fill="#000000" />
<rect x="48" y="60" width="12" height="60" fill="#000000" />
<rect x="120" y="60" width="12" height="60" fill="#000000" />
<rect x="156" y="60" width="12" height="12" fill="#000000" />
<rect x="180" y="60" width="24" height="12" fill="#000000" />
<rect x="216" y="60" width="12" height="12" fill="#000000" />
<rect x="240" y="60" width="12" height="12" fill="#000000" />
<rect x="264" y="60" width="12" height="12" fill="#000000" />
<rect x="336" y="60" width="60" height="12" fill="#000000" />
<rect x="408" y="60" width="12" height="12" fill="#000000" />
<rect x="456" y="60" width="12" height="60" fill="#000000" />
<rect x="528" y="60" width="12" height="60" fill="#000000" />
<rect x="72" y="72" width="36" height="36" fill="#000000" />
<rect x="192" y="72" width="36" height="12" fill="#000000" />
<rect x="288" y="72" width="12" height="12" fill="#000000" />
<rect x="336" y="72" width="24" height="12" fill="#000000" />
<rect x="372" y="72" width="12" height="12" fill="#000000" />
<rect x="420" y="72" width="24" height="12" fill="#000000" />
<rect x="480" y="72" width="36" height="36" fill="#000000" />
<rect x="156" y="84" width="12" height="12" fill="#000000" />
<rect x="192" y="84" width="12" height="12" fill="#000000" />
<rect x="216" y="84" width="12" height="12" fill="#000000" />
<rect x="264" y="84" width="60" height="12" fill="#000000" />
<rect x="360" y="84" width="12" height="12" fill="#000000" />
<rect x="408" y="84" width="36" height="12" fill="#000000" />
<rect x="144" y="96" width="36" height="12" fill="#000000" />
<rect x="204" y="96" width="12" height="12" fill="#000000" />
<rect x="228" y="96" width="24" height="12" fill="#000000" />
<rect x="264" y="96" width="24" height="12" fill="#000000" />
<rect x="348" y="96" width="12" height="12" fill="#000000" />
<rect x="384" y="96" width="24" height="12" fill="#000000" />
<rect x="420" y="96" width="24" height="12" fill="#000000" />
<rect x="144" y="108" width="12" height="24" fill="#000000" />
<rect x="180" y="108" width="24" height="12" fill="#000000" />
<rect x="216" y="108" width="12" height="24" fill="#000000" />
<rect x="240" y="108" width="12" height="24" fill="#000000" />
<rect x="276" y="108" width="12" height="12" fill="#000000" />
<rect x="300" y="108" width="36" height="12" fill="#000000" />
<rect x="372" y="108" width="12" height="12" fill="#000000" />
<rect x="48" y="120" width="84" height="12" fill="#000000" />
<rect x="168" y="120" width="12" height="12" fill="#000000" />
<rect x="192" y="120" width="12" height="12" fill="#000000" />
<rect x="264" y="120" width="12" height="12" fill="#000000" />
<rect x="288" y="120" width="12" height="12" fill="#000000" />
<rect x="312" y="120" width="12" height="12" fill="#000000" />
<rect x="336" y="120" width="12" height="24" fill="#000000" />
<rect x="360" y="120" width="12" height="12" fill="#000000" />
<rect x="384" y="120" width="12" height="12" fill="#000000" />
<rect x="408" y="120" width="12" height="12" fill="#000000" />
<rect x="432" y="120" width="12" height="12" fill="#000000" />
<rect x="456" y="120" width="84" height="12" fill="#000000" />
<rect x="156" y="132" width="12" height="12" fill="#000000" />
<rect x="180" y="132" width="60" height="12" fill="#000000" />
<rect x="300" y="132" width="24" height="12" fill="#000000" />
<rect x="372" y="132" width="24" height="12" fill="#000000" />
<rect x="408" y="132" width="36" height="12" fill="#000000" />
<rect x="60" y="144" width="84" height="12" fill="#000000" />
<rect x="156" y="144" width="36" height="12" fill="#000000" />
<rect x="204" y="144" width="36" height="12" fill="#000000" />
<rect x="264" y="144" width="24" height="12" fill="#000000" />
<rect x="300" y="144" width="12" height="12" fill="#000000" />
<rect x="348" y="144" width="24" height="12" fill="#000000" />
<rect x="396" y="144" width="12" height="12" fill="#000000" />
<rect x="468" y="144" width="24" height="12" fill="#000000" />
<rect x="528" y="144" width="12" height="12" fill="#000000" />
<rect x="48" y="156" width="12" height="24" fill="#000000" />
<rect x="84" y="156" width="12" height="12" fill="#000000" />
<rect x="132" y="156" width="36" height="12" fill="#000000" />
<rect x="192" y="156" width="12" height="12" fill="#000000" />
<rect x="252" y="156" width="24" height="12" fill="#000000" />
<rect x="336" y="156" width="24" height="12" fill="#000000" />
<rect x="384" y="156" width="12" height="12" fill="#000000" />
<rect x="408" y="156" width="84" height="12" fill="#000000" />
<rect x="504" y="156" width="36" height="12" fill="#000000" />
<rect x="120" y="168" width="12" height="12" fill="#000000" />
<rect x="156" y="168" width="12" height="12" fill="#000000" />
<rect x="180" y="168" width="24" height="12" fill="#000000" />
<rect x="216" y="168" width="12" height="12" fill="#000000" />
<rect x="240" y="168" width="24" height="12" fill="#000000" />
<rect x="276" y="168" width="60" height="12" fill="#000000" />
<rect x="360" y="168" width="24" height="12" fill="#000000" />
<rect x="396" y="168" width="24" height="12" fill="#000000" />
<rect x="432" y="168" width="12" height="12" fill="#000000" />
<rect x="468" y="168" width="24" height="12" fill="#000000" />
<rect x="48" y="180" width="36" height="12" fill="#000000" />
<rect x="108" y="180" width="12" height="12" fill="#000000" />
<rect x="144" y="180" width="60" height="12" fill="#000000" />
<rect x="216" y="180" width="24" height="12" fill="#000000" />
<rect x="252" y="180" width="24" height="12" fill="#000000" />
<rect x="288" y="180" width="24" height="12" fill="#000000" />
<rect x="336" y="180" width="12" height="12" fill="#000000" />
<rect x="372" y="180" width="24" height="12" fill="#000000" />
<rect x="420" y="180" width="24" height="12" fill="#000000" />
<rect x="468" y="180" width="36" height="12" fill="#000000" />
<rect x="528" y="180" width="12" height="36" fill="#000000" />
<rect x="48" y="192" width="12" height="12" fill="#000000" />
<rect x="72" y="192" width="12" height="12" fill="#000000" />
<rect x="96" y="192" width="48" height="12" fill="#000000" />
<rect x="156" y="192" width="12" height="12" fill="#000000" />
<rect x="192" y="192" width="60" height="12" fill="#000000" />
<rect x="264" y="192" width="24" height="12" fill="#000000" />
<rect x="324" y="192" width="48" height="12" fill="#000000" />
<rect x="384" y="192" width="48" height="12" fill="#000000" />
<rect x="444" y="192" width="12" height="12" fill="#000000" />
<rect x="492" y="192" width="24" height="12" fill="#000000" />
<rect x="48" y="204" width="36" height="12" fill="#000000" />
<rect x="96" y="204" width="12" height="12" fill="#000000" />
<rect x="132" y="204" width="24" height="12" fill="#000000" />
<rect x="168" y="204" width="24" height="12" fill="#000000" />
<rect x="204" y="204" width="24" height="12" fill="#000000" />
<rect x="240" y="204" width="36" height="12" fill="#000000" />
<rect x="288" y="204" width="24" height="12" fill="#000000" />
<rect x="372" y="204" width="12" height="12" fill="#000000" />
<rect x="408" y="204" width="12" height="12" fill="#000000" />
<rect x="432" y="204" width="24" height="12" fill="#000000" />
<rect x="468" y="204" width="24" height="12" fill="#000000" />
<rect x="72" y="216" width="12" height="12" fill="#000000" />
<rect x="96" y="216" width="60" height="12" fill="#000000" />
<rect x="204" y="216" width="12" height="12" fill="#000000" />
<rect x="252" y="216" width="48" height="12" fill="#000000" />
<rect x="324" y="216" width="24" height="12" fill="#000000" />
<rect x="372" y="216" width="24" height="12" fill="#000000" />
<rect x="420" y="216" width="12" height="12" fill="#000000" />
<rect x="444" y="216" width="12" height="12" fill="#000000" />
<rect x="468" y="216" width="12" height="12" fill="#000000" />
<rect x="48" y="228" width="36" height="12" fill="#000000" />
<rect x="132" y="228" width="12" height="12" fill="#000000" />
<rect x="156" y="228" width="72" height="12" fill="#000000" />
<rect x="276" y="228" width="24" height="12" fill="#000000" />
<rect x="324" y="228" width="12" height="12" fill="#000000" />
<rect x="360" y="228" width="24" height="12" fill="#000000" />
<rect x="420" y="228" width="24" height="12" fill="#000000" />
<rect x="456" y="228" width="24" height="12" fill="#000000" />
<rect x="516" y="228" width="24" height="12" fill="#000000" />
<rect x="60" y="240" width="24" height="12" fill="#000000" />
<rect x="96" y="240" width="48" height="12" fill="#000000" />
<rect x="168" y="240" width="12" height="12" fill="#000000" />
<rect x="204" y="240" width="12" height="12" fill="#000000" />
<rect x="240" y="240" width="12" height="12" fill="#000000" />
<rect x="264" y="240" width="12" height="12" fill="#000000" />
<rect x="300" y="240" width="36" height="12" fill="#000000" />
<rect x="348" y="240" width="84" height="12" fill="#000000" />
<rect x="444" y="240" width="12" height="12" fill="#000000" />
<rect x="468" y="240" width="12" height="12" fill="#000000" />
<rect x="492" y="240" width="36" height="12" fill="#000000" />
<rect x="84" y="252" width="24" height="12" fill="#000000" />
<rect x="132" y="252" width="12" height="12" fill="#000000" />
<rect x="168" y="252" width="36" height="12" fill="#000000" />
<rect x="228" y="252" width="12" height="12" fill="#000000" />
<rect x="252" y="252" width="24" height="12" fill="#000000" />
<rect x="300" y="252" width="48" height="12" fill="#000000" />
<rect x="384" y="252" width="60" height="12" fill="#000000" />
<rect x="456" y="252" width="36" height="12" fill="#000000" />
<rect x="504" y="252" width="12" height="12" fill="#000000" />
<rect x="528" y="252" width="12" height="12" fill="#000000" />
<rect x="84" y="264" width="12" height="12" fill="#000000" />
<rect x="120" y="264" width="36" height="12" fill="#000000" />
<rect x="180" y="264" width="24" height="24" fill="#000000" />
<rect x="216" y="264" width="24" height="12" fill="#000000" />
<rect x="264" y="264" width="48" height="12" fill="#000000" />
<rect x="372" y="264" width="36" height="12" fill="#000000" />
<rect x="432" y="264" width="24" height="12" fill="#000000" />
<rect x="480" y="264" width="24" height="12" fill="#000000" />
<rect x="516" y="264" width="12" height="12" fill="#000000" />
<rect x="60" y="276" width="60" height="12" fill="#000000" />
<rect x="132" y="276" width="36" height="12" fill="#000000" />
<rect x="216" y="276" width="12" height="24" fill="#000000" />
<rect x="276" y="276" width="12" height="12" fill="#000000" />
<rect x="360" y="276" width="12" height="12" fill="#000000" />
<rect x="384" y="276" width="36" height="12" fill="#000000" />
<rect x="456" y="276" width="12" height="12" fill="#000000" />
<rect x="480" y="276" width="12" height="12" fill="#000000" />
<rect x="528" y="276" width="12" height="12" fill="#000000" />
<rect x="48" y="288" width="12" height="12" fill="#000000" />
<rect x="84" y="288" width="12" height="12" fill="#000000" />
<rect x="120" y="288" width="12" height="12" fill="#000000" />
<rect x="168" y="288" width="24" height="24" fill="#000000" />
<rect x="240" y="288" width="36" height="12" fill="#000000" />
<rect x="288" y="288" width="24" height="12" fill="#000000" />
<rect x="324" y="288" width="24" height="12" fill="#000000" />
<rect x="420" y="288" width="12" height="12" fill="#000000" />
<rect x="468" y="288" width="12" height="12" fill="#000000" />
<rect x="504" y="288" width="12" height="12" fill="#000000" />
<rect x="60" y="300" width="24" height="12" fill="#000000" />
<rect x="96" y="300" width="24" height="12" fill="#000000" />
<rect x="132" y="300" width="12" height="12" fill="#000000" />
<rect x="204" y="300" width="12" height="12" fill="#000000" />
<rect x="228" y="300" width="12" height="12" fill="#000000" />
<rect x="252" y="300" width="36" height="12" fill="#000000" />
<rect x="300" y="300" width="72" height="12" fill="#000000" />
<rect x="384" y="300" width="156" height="12" fill="#000000" />
<rect x="48" y="312" width="12" height="12" fill="#000000" />
<rect x="72" y="312" width="36" height="12" fill="#000000" />
<rect x="120" y="312" width="12" height="12" fill="#000000" />
<rect x="144" y="312" width="60" height="12" fill="#000000" />
<rect x="216" y="312" width="24" height="12" fill="#000000" />
<rect x="252" y="312" width="12" height="36" fill="#000000" />
<rect x="276" y="312" width="12" height="12" fill="#000000" />
<rect x="312" y="312" width="12" height="24" fill="#000000" />
<rect x="348" y="312" width="60" height="12" fill="#000000" />
<rect x="432" y="312" width="36" height="12" fill="#000000" />
<rect x="492" y="312" width="12" height="24" fill="#000000" />
<rect x="48" y="324" width="24" height="12" fill="#000000" />
<rect x="84" y="324" width="12" height="12" fill="#000000" />
<rect x="108" y="324" width="12" height="12" fill="#000000" />
<rect x="132" y="324" width="24" height="12" fill="#000000" />
<rect x="168" y="324" width="48" height="12" fill="#000000" />
<rect x="228" y="324" width="12" height="12" fill="#000000" />
<rect x="288" y="324" width="12" height="12" fill="#000000" />
<rect x="360" y="324" width="24" height="12" fill="#000000" />
<rect x="432" y="324" width="12" height="12" fill="#000000" />
<rect x="468" y="324" width="12" height="24" fill="#000000" />
<rect x="72" y="336" width="36" height="12" fill="#000000" />
<rect x="120" y="336" width="48" height="12" fill="#000000" />
<rect x="216" y="336" width="24" height="12" fill="#000000" />
<rect x="348" y="336" width="24" height="12" fill="#000000" />
<rect x="396" y="336" width="12" height="12" fill="#000000" />
<rect x="504" y="336" width="12" height="12" fill="#000000" />
<rect x="528" y="336" width="12" height="12" fill="#000000" />
<rect x="48" y="348" width="12" height="24" fill="#000000" />
<rect x="72" y="348" width="24" height="12" fill="#000000" />
<rect x="132" y="348" width="48" height="12" fill="#000000" />
<rect x="192" y="348" width="48" height="12" fill="#000000" />
<rect x="252" y="348" width="24" height="12" fill="#000000" />
<rect x="312" y="348" width="36" height="12" fill="#000000" />
<rect x="360" y="348" width="12" height="12" fill="#000000" />
<rect x="384" y="348" width="48" height="12" fill="#000000" />
<rect x="456" y="348" width="48" height="12" fill="#000000" />
<rect x="516" y="348" width="24" height="12" fill="#000000" />
<rect x="84" y="360" width="12" height="12" fill="#000000" />
<rect x="120" y="360" width="12" height="12" fill="#000000" />
<rect x="144" y="360" width="36" height="12" fill="#000000" />
<rect x="192" y="360" width="12" height="12" fill="#000000" />
<rect x="240" y="360" width="12" height="12" fill="#000000" />
<rect x="264" y="360" width="24" height="12" fill="#000000" />
<rect x="300" y="360" width="24" height="12" fill="#000000" />
<rect x="336" y="360" width="12" height="12" fill="#000000" />
<rect x="372" y="360" width="24" height="12" fill="#000000" />
<rect x="432" y="360" width="12" height="12" fill="#000000" />
<rect x="456" y="360" width="24" height="12" fill="#000000" />
<rect x="516" y="360" width="12" height="12" fill="#000000" />
<rect x="48" y="372" width="24" height="12" fill="#000000" />
<rect x="84" y="372" width="24" height="12" fill="#000000" />
<rect x="144" y="372" width="72" height="12" fill="#000000" />
<rect x="228" y="372" width="36" height="12" fill="#000000" />
<rect x="360" y="372" width="24" height="12" fill="#000000" />
<rect x="420" y="372" width="48" height="12" fill="#000000" />
<rect x="480" y="372" width="24" height="12" fill="#000000" />
<rect x="516" y="372" width="24" height="12" fill="#000000" />
<rect x="60" y="384" width="36" height="12" fill="#000000" />
<rect x="120" y="384" width="12" height="12" fill="#000000" />
<rect x="144" y="384" width="24" height="12" fill="#000000" />
<rect x="180" y="384" width="24" height="24" fill="#000000" />
<rect x="240" y="384" width="12" height="12" fill="#000000" />
<rect x="264" y="384" width="12" height="12" fill="#000000" />
<rect x="312" y="384" width="12" height="24" fill="#000000" />
<rect x="348" y="384" width="36" height="12" fill="#000000" />
<rect x="396" y="384" width="12" height="12" fill="#000000" />
<rect x="420" y="384" width="24" height="12" fill="#000000" />
<rect x="456" y="384" width="12" height="12" fill="#000000" />
<rect x="492" y="384" width="36" height="12" fill="#000000" />
<rect x="48" y="396" width="12" height="48" fill="#000000" />
<rect x="72" y="396" width="36" height="12" fill="#000000" />
<rect x="228" y="396" width="24" height="12" fill="#000000" />
<rect x="264" y="396" width="36" height="12" fill="#000000" />
<rect x="336" y="396" width="12" height="12" fill="#000000" />
<rect x="372" y="396" width="36" height="12" fill="#000000" />
<rect x="444" y="396" width="12" height="12" fill="#000000" />
<rect x="480" y="396" width="24" height="24" fill="#000000" />
<rect x="516" y="396" width="24" height="12" fill="#000000" />
<rect x="72" y="408" width="12" height="24" fill="#000000" />
<rect x="120" y="408" width="12" height="12" fill="#000000" />
<rect x="144" y="408" width="12" height="12" fill="#000000" />
<rect x="168" y="408" width="12" height="12" fill="#000000" />
<rect x="204" y="408" width="12" height="12" fill="#000000" />
<rect x="240" y="408" width="24" height="12" fill="#000000" />
<rect x="348" y="408" width="24" height="12" fill="#000000" />
<rect x="432" y="408" width="36" height="12" fill="#000000" />
<rect x="108" y="420" width="12" height="12" fill="#000000" />
<rect x="156" y="420" width="36" height="12" fill="#000000" />
<rect x="216" y="420" width="24" height="12" fill="#000000" />
<rect x="264" y="420" width="60" height="12" fill="#000000" />
<rect x="336" y="420" width="12" height="12" fill="#000000" />
<rect x="360" y="420" width="12" height="12" fill="#000000" />
<rect x="384" y="420" width="12" height="12" fill="#000000" />
<rect x="444" y="420" width="48" height="12" fill="#000000" />
<rect x="96" y="432" width="36" height="12" fill="#000000" />
<rect x="180" y="432" width="12" height="24" fill="#000000" />
<rect x="216" y="432" width="12" height="12" fill="#000000" />
<rect x="264" y="432" width="24" height="12" fill="#000000" />
<rect x="300" y="432" width="12" height="12" fill="#000000" />
<rect x="336" y="432" width="36" height="12" fill="#000000" />
<rect x="396" y="432" width="12" height="12" fill="#000000" />
<rect x="432" y="432" width="84" height="12" fill="#000000" />
<rect x="528" y="432" width="12" height="24" fill="#000000" />
<rect x="144" y="444" width="24" height="12" fill="#000000" />
<rect x="204" y="444" width="12" height="12" fill="#000000" />
<rect x="240" y="444" width="36" height="12" fill="#000000" />
<rect x="324" y="444" width="36" height="12" fill="#000000" />
<rect x="384" y="444" width="12" height="12" fill="#000000" />
<rect x="432" y="444" width="12" height="12" fill="#000000" />
<rect x="480" y="444" width="36" height="12" fill="#000000" />
<rect x="48" y="456" width="84" height="12" fill="#000000" />
<rect x="144" y="456" width="36" height="12" fill="#000000" />
<rect x="204" y="456" width="36" height="12" fill="#000000" />
<rect x="252" y="456" width="12" height="12" fill="#000000" />
<rect x="288" y="456" width="36" height="12" fill="#000000" />
<rect x="348" y="456" width="36" height="12" fill="#000000" />
<rect x="408" y="456" width="36" height="12" fill="#000000" />
<rect x="456" y="456" width="12" height="12" fill="#000000" />
<rect x="480" y="456" width="24" height="24" fill="#000000" />
<rect x="516" y="456" width="12" height="12" fill="#000000" />
<rect x="48" y="468" width="12" height="60" fill="#000000" />
<rect x="120" y="468" width="12" height="60" fill="#000000" />
<rect x="144" y="468" width="12" height="12" fill="#000000" />
<rect x="168" y="468" width="36" height="12" fill="#000000" />
<rect x="240" y="468" width="24" height="12" fill="#000000" />
<rect x="276" y="468" width="12" height="12" fill="#000000" />
<rect x="300" y="468" width="12" height="12" fill="#000000" />
<rect x="348" y="468" width="12" height="12" fill="#000000" />
<rect x="384" y="468" width="12" height="12" fill="#000000" />
<rect x="420" y="468" width="24" height="12" fill="#000000" />
<rect x="516" y="468" width="24" height="12" fill="#000000" />
<rect x="72" y="480" width="36" height="36" fill="#000000" />
<rect x="144" y="480" width="60" height="12" fill="#000000" />
<rect x="228" y="480" width="24" height="12" fill="#000000" />
<rect x="276" y="480" width="24" height="12" fill="#000000" />
<rect x="312" y="480" width="12" height="12" fill="#000000" />
<rect x="336" y="480" width="12" height="12" fill="#000000" />
<rect x="360" y="480" width="24" height="12" fill="#000000" />
<rect x="408" y="480" width="12" height="12" fill="#000000" />
<rect x="432" y="480" width="60" height="12" fill="#000000" />
<rect x="504" y="480" width="36" height="12" fill="#000000" />
<rect x="144" y="492" width="12" height="36" fill="#000000" />
<rect x="168" y="492" width="36" height="12" fill="#000000" />
<rect x="228" y="492" width="72" height="12" fill="#000000" />
<rect x="324" y="492" width="12" height="12" fill="#000000" />
<rect x="384" y="492" width="12" height="12" fill="#000000" />
<rect x="420" y="492" width="36" height="12" fill="#000000" />
<rect x="468" y="492" width="12" height="12" fill="#000000" />
<rect x="492" y="492" width="12" height="12" fill="#000000" />
<rect x="528" y="492" width="12" height="12" fill="#000000" />
<rect x="180" y="504" width="24" height="12" fill="#000000" />
<rect x="240" y="504" width="24" height="12" fill="#000000" />
<rect x="276" y="504" width="12" height="12" fill="#000000" />
<rect x="312" y="504" width="12" height="12" fill="#000000" />
<rect x="348" y="504" width="12" height="12" fill="#000000" />
<rect x="372" y="504" width="12" height="12" fill="#000000" />
<rect x="396" y="504" width="24" height="12" fill="#000000" />
<rect x="444" y="504" width="60" height="12" fill="#000000" />
<rect x="516" y="504" width="12" height="24" fill="#000000" />
<rect x="180" y="516" width="12" height="12" fill="#000000" />
<rect x="216" y="516" width="12" height="12" fill="#000000" />
<rect x="276" y="516" width="24" height="12" fill="#000000" />
<rect x="324" y="516" width="12" height="12" fill="#000000" />
<rect x="360" y="516" width="12" height="12" fill="#000000" />
<rect x="384" y="516" width="12" height="12" fill="#000000" />
<rect x="432" y="516" width="36" height="12" fill="#000000" />
<rect x="480" y="516" width="24" height="12" fill="#000000" />
<rect x="48" y="528" width="84" height="12" fill="#000000" />
<rect x="180" y="528" width="24" height="12" fill="#000000" />
<rect x="240" y="528" width="12" height="12" fill="#000000" />
<rect x="300" y="528" width="12" height="12" fill="#000000" />
<rect x="348" y="528" width="36" height="12" fill="#000000" />
<rect x="396" y="528" width="12" height="12" fill="#000000" />
<rect x="420" y="528" width="12" height="12" fill="#000000" />
<rect x="444" y="528" width="12" height="12" fill="#000000" />
<rect x="468" y="528" width="24" height="12" fill="#000000" />
<rect x="504" y="528" width="12" height="12" fill="#000000" />
</svg>